<?xml version="1.0" encoding="UTF-8"?><svg xmlns:svg="http://www.w3.org/2000/svg" xmlns="http://www.w3.org/2000/svg" width="325" height="500" version="1.0"><style type="text/css">.s0{fill-rule:evenodd;fill:#dadada;stroke-width:2;stroke:black;}.s1{fill-rule:evenodd;fill:#f4d279;stroke-width:2;stroke:black;}.s2{fill:black;font-family:Bitstream Vera Sans;font-size:28px;line-height:100%;text-align:center;text-anchor:middle;writing-mode:lr-tb;}.s3{fill:#f4d279;stroke-dashoffset:10;stroke-linecap:round;stroke-linejoin:round;stroke-width:2.39791584;stroke:black;}.s4{fill:black;font-family:Bitstream Vera Sans;font-size:28px;line-height:125%;text-align:center;text-anchor:middle;writing-mode:lr-tb;}</style><defs/><metadata/><g transform="translate(-32,-176.0693)"><path d="M56 446L55 584.75C55 611.75 170 611.75 170 584.75L171 446" class="s0"/><g transform="translate(26,341.75)"><path d="M30 65L30 65 30 105C30 132 145 132 145 105L145 65" class="s1"/><text y="114.46428" x="88.689453" xml:space="preserve" class="s2"><tspan y="114.46428" x="88.689453">A4</tspan></text></g><g transform="translate(26,301.2143)"><path d="M30 65L30 65 30 105C30 132 145 132 145 105L145 65" class="s1"/><text y="114.46428" x="88.689453" xml:space="preserve" class="s2"><tspan y="114.46428" x="88.689453">A3</tspan></text></g><g transform="translate(26,261.75)"><path d="M30 65L30 65 30 105C30 132 145 132 145 105L145 65" class="s1"/><text y="114.46428" x="88.689453" xml:space="preserve" class="s2"><tspan y="114.46428" x="88.689453">A2</tspan></text></g><g transform="translate(26,221.2143)"><path d="M30 65L30 65 30 105C30 132 145 132 145 105L145 65" class="s1"/><text y="114.46428" x="88.689453" xml:space="preserve" class="s2"><tspan y="114.46428" x="88.689453">A1</tspan></text></g><path d="M145 73.75A57.5 28.75 0 1 1 30 73.75 57.5 28.75 0 1 1 145 73.75z" transform="matrix(1,0,0,0.695652,26,234.91)" class="s3"/><path d="M222 446L221 584.75C221 611.75 336 611.75 336 584.75L337 446" class="s0"/><g transform="translate(192,341.75)"><path d="M30 65L30 65 30 105C30 132 145 132 145 105L145 65" class="s1"/><text y="114.46428" x="88.689453" xml:space="preserve" class="s2"><tspan y="114.46428" x="88.689453">A4</tspan></text></g><g transform="translate(192,301.2143)"><path d="M30 65L30 65 30 105C30 132 145 132 145 105L145 65" class="s1"/><text y="114.46428" x="88.689453" xml:space="preserve" class="s2"><tspan y="114.46428" x="88.689453">A3</tspan></text></g><g transform="translate(192,261.75)"><path d="M30 65L30 65 30 105C30 132 145 132 145 105L145 65" class="s1"/><text y="114.46428" x="88.689453" xml:space="preserve" class="s2"><tspan y="114.46428" x="88.689453">A2</tspan></text></g><g transform="translate(192,221.2143)"><path d="M30 65L30 65 30 105C30 132 145 132 145 105L145 65" class="s1"/><text y="114.46428" x="88.689453" xml:space="preserve" class="s2"><tspan y="114.46428" x="88.689453">A1</tspan></text></g><path d="M145 73.75A57.5 28.75 0 1 1 30 73.75 57.5 28.75 0 1 1 145 73.75z" transform="matrix(1,0,0,0.695652,192,234.91)" class="s3"/><path d="M112 286L112 246 282 246 282 286" style="fill:none;stroke-width:2;stroke:black"/><text xml:space="preserve" x="196.25" y="227.69431" style="fill:black;font-family:Bitstream Vera Sans;font-size:48px;line-height:125%;text-align:center;text-anchor:middle;writing-mode:lr-tb"><tspan x="196.25" y="227.69431">RAID 1</tspan></text><text xml:space="preserve" x="112.5625" y="648.85608" class="s4"><tspan x="112.5625" y="648.85608">Disk 0</tspan></text><text xml:space="preserve" x="278.5625" y="648.85608" class="s4"><tspan x="278.5625" y="648.85608">Disk 1</tspan></text></g></svg>