<?xml version="1.0" encoding="UTF-8" standalone="no"?>
<!-- Created with Inkscape (http://www.inkscape.org/) -->

<svg
   version="1.1"
   id="svg79"
   width="30"
   height="30"
   viewBox="0 0 720 720"
   sodipodi:docname="Pingüino-Incscape.svg"
   inkscape:version="1.2.1 (0f2f062aeb, 2022-09-21, custom)"
   xmlns:inkscape="http://www.inkscape.org/namespaces/inkscape"
   xmlns:sodipodi="http://sodipodi.sourceforge.net/DTD/sodipodi-0.dtd"
   xmlns="http://www.w3.org/2000/svg"
   xmlns:svg="http://www.w3.org/2000/svg">
  <defs
     id="defs83">
    <inkscape:path-effect
       effect="roughen"
       id="path-effect7206"
       is_visible="true"
       lpeversion="1.2"
       method="size"
       max_segment_size="184.534"
       segments="13"
       displace_x="4.5;1"
       displace_y="9.51;1"
       global_randomize="0.5;1"
       handles="along"
       shift_nodes="true"
       fixed_displacement="false"
       spray_tool_friendly="false" />
    <filter
       y="-0.0053117205"
       height="1.0106234"
       inkscape:menu-tooltip="Darkens the edge with an inner blur and adds a flexible glow"
       inkscape:menu="Shadows and Glows"
       inkscape:label="Dark and Glow"
       style="color-interpolation-filters:sRGB;"
       id="filter7329"
       x="-0.0076767886"
       width="1.0153536">
      <feGaussianBlur
         stdDeviation="1.4049899193548387"
         result="result6"
         id="feGaussianBlur7319" />
      <feComposite
         result="result8"
         in="SourceGraphic"
         operator="atop"
         in2="result6"
         id="feComposite7321" />
      <feComposite
         result="result9"
         operator="over"
         in2="SourceAlpha"
         in="result8"
         id="feComposite7323" />
      <feColorMatrix
         values="1 0 0 0 0 0 1 0 0 0 0 0 1 0 0 0 0 0 1 0 "
         result="result10"
         id="feColorMatrix7325" />
      <feBlend
         in="result10"
         mode="normal"
         in2="result6"
         id="feBlend7327" />
    </filter>
  </defs>
  <sodipodi:namedview
     id="namedview81"
     pagecolor="#505050"
     bordercolor="#eeeeee"
     borderopacity="1"
     inkscape:showpageshadow="0"
     inkscape:pageopacity="0"
     inkscape:pagecheckerboard="0"
     inkscape:deskcolor="#505050"
     showgrid="false"
     inkscape:zoom="1.1041667"
     inkscape:cx="462.79245"
     inkscape:cy="401.66037"
     inkscape:window-width="1920"
     inkscape:window-height="1011"
     inkscape:window-x="0"
     inkscape:window-y="0"
     inkscape:window-maximized="1"
     inkscape:current-layer="g85" />
  <g
     inkscape:groupmode="layer"
     inkscape:label="Image"
     id="g85">
    <g
       id="g7225"
       transform="translate(874.09404,9.9762089)"
       style="filter:url(#filter7329)">
      <g
         id="g6509"
         transform="translate(-186,0.67924528)">
        <g
           id="g4000"
           transform="translate(-659.79481)">
          <g
             id="g3863"
             transform="translate(29.448113,-8.1049528)">
            <path
               style="fill:#28282b;stroke:none"
               d="m 202.04863,331.82111 c -26.686,-0.074 -52.628,-7.86 -79,-10.662 -10.819,-1.15 -25.489998,-1.654 -33.627998,6.904 -12.6,13.252 0.635,32.159 8.918,43.758 23.724998,33.223 54.334998,62.62 71.779998,100 8.676,18.59 13.681,45.427 5.257,65 -3.545,8.237 -15.711,16.224 -16.627,25 -0.621,5.944 7.868,11.528 12.3,14 7.038,-11.482 15.007,-29.01 28.252,-12.974 2.086,2.526 3.899,5.274 5.748,7.974 5.647,-2.649 10.511,-9.736 17,-10.1 9.45298,-0.53 14.99398,13.851 17.01598,21.1 7.572,27.148 -4.934,46.641 -13.01598,71 39.79298,12.983 79.79498,-0.052 119.99998,-2.845 26.509,-1.842 52.615,5.741 79,6.845 -14.674,-20.753 -28.492,-42.434 -26.886,-69 0.415,-6.88 5.53,-25.898 14.914,-24.965 5.339,0.531 10.104,6.725 14.972,8.965 1.731,-8.489 8.07698,-27.387 19.99998,-23.743 8.723,2.666 13.517,11.275 21,15.743 1.365,-2.843 2.837,-5.502 4.786,-8 15.42,-19.767 25.068,9.607 27.214,23 8.244,-26.492 -13.583,-49.59 -20.193,-73 -3.278,-11.611 1.09,-23.245 0.704,-35 -0.523,-15.895 -6.462,-32.477 -12.55,-47 -4.492,-10.717 -11.131,-20.14 -17.177,-30 -2.481,-4.047 -7.152,-9.069 -7.412,-14 -0.406,-7.67 10.985,-17.395 15.436,-23 14.95,-18.827 31.493,-36.349 42.438,-58 42.465,-84.002 21.219,-200.142998 -65.246,-248.100701 -21.16398,-11.7387 -45.32698,-14.7667 -68.99998,-17.2303 -76.226,-7.9324 -172.42198,12.5629 -203.99498,92.331001 -27.974,70.675 -2.347,145.868 37.995,206 m 141.99998,-259.999998 -8,-11 c 13.152,-6.800803 25.962,-4.541903 40,-3.127103 6.139,0.6187 15.254,1.814903 19.009,7.490703 7.761,11.7306 -21.161,14.8522 -27.339,14.2203 -8.265,-0.8454 -15.382,-6.4104 -23.67,-7.5839 m -22,154.999998 c 15.263,-4.312 20.832,-0.565 34,7 0.258,-9.602 4.153,-18.089 7.355,-27 7.687,-21.388 16.643,-45.072 33.658,-60.83 18.318,-16.966 41.35198,-17.256 58.24098,2.07 19.031,21.777 18.752,54.684 18.746,81.76 0,7.807 -3.811,19.229 -1.516,26.557 1.72,5.498 7.676,9.67 10.79,14.443 6.699,10.266 3.836,21.365 -2.47,31 -41.29,63.09 -123.74298,58.391 -188.80398,48.999 -44.145,-6.373 -90.06598,-24.835 -104.23798,-71.999 -2.707,-9.01 -4.826,-21.023 -0.942,-30 5.699,-13.172 17.491,-20.983 20.011,-36 5.524,-32.92 8.649,-72.165 39.16898,-92.984 15.415,-10.516 35.343,-2.276 48.999,7.38 32.83,23.215 38.203,63.915 27.001,99.604 m -55,-69.334 c -20.592,4.775 -26.955,26.166 -29.181,44.334 -0.806,6.575 -2.275,14.967 1.422,20.932 8.663,13.974 36.559,15.581 50.759,12.099 13.785,-3.381 16.1,-16.671 17.668,-29.031 3.134,-24.708 -10.25,-55.387 -40.668,-48.334 m 24,72.334 c 4.76,-12.333 9.026,-29.973 0.957,-41.984 -11.081,-16.495 -35.266,-10.497 -41.713,6.984 -3.542,9.603 -2.567,21.074 -1.244,31 -9.318,-4.588 -8.282,-15.028 -7.327,-24 1.855,-17.427 9.321,-39.902 30.327,-41.263 26.447,-1.712 34.657,22.642 31.938,44.263 -1.223,9.722 -2.663,21.193 -12.938,25 m 123,-59.53 c -22.811,2.509 -28.98,23.068 -32.797,42.53 -1.313,6.699 -4.106,15.673 -0.174,21.941 8.708,13.882 32.536,15.265 46.971,13.721 40.07698,-4.287 26.91098,-82.691 -14,-78.192 m 18,73.53 c 2.77198,-6.633 4.99898,-12.727 5.20298,-20 0.635,-22.68 -21.35398,-44.73 -39.51698,-20.986 -8.179,10.691 -7.118,23.608 -4.686,35.986 -11.894,-5.772 -9.181,-16.7 -7.542,-28 3.155,-21.755 13.978,-39.75 38.542,-35.557 20.52498,3.502 23.05098,26.382 22.99798,43.557 -0.036,11.668 -2.055,22.288 -14.99798,25 m -129,126.36 c 10.592,-1.301 23.719,-0.578 34,2.332 8.337,2.36 16.113,7.096 22.999,12.242 8.343,6.234 18.178,15.308 20.276,26.066 1.516,7.775 -2.607,17.078 -5.731,24 -7.78,17.241 -17.655,34.076 -27.833,50 -5.24,8.199 -17.721,20.423 -15.947,30.992 1.373,8.181 10.316,9.805 17.236,9.98 11.945,0.302 36.504,-6.468 46.479,1.055 13.308,10.035 10.76,31.218 4.226,43.973 -14.556,28.413 -37.824,41.169 -68.705,46.343 -51.229,8.583 -92.961,-29.058 -105.68598,-77.343 -7.588,-28.794 -4.869,-59.321 1.467,-88 9.05898,-40.999 32.89598,-76.194 77.21898,-81.64 z"
               id="path268" />
            <path
               style="fill:#ffffff;fill-opacity:1;stroke-width:1.2808"
               d="m 327.65811,354.44614 c -15.4611,-1.21706 -46.7854,-5.92772 -57.7322,-8.68194 -37.8176,-9.51502 -63.97822,-28.25144 -76.63446,-54.88608 -7.28889,-15.33924 -9.75793,-32.11449 -6.03734,-41.01912 0.97049,-2.32273 5.51923,-9.72247 10.10829,-16.44389 4.58907,-6.72141 8.69165,-13.88014 9.11684,-15.90829 0.42519,-2.02814 2.20398,-12.04473 3.95287,-22.25909 5.36225,-31.31818 10.66005,-46.52121 20.977,-60.19747 6.5456,-8.67695 17.9612,-17.54496 24.0575,-18.68863 16.7332,-3.13917 40.8378,8.50883 54.819,26.49004 10.675,13.72921 16.0418,30.22456 16.0727,49.4016 0.017,10.47595 -2.2284,27.01091 -4.4248,32.58479 -0.7093,1.80012 0.3435,1.98183 8.5415,1.47419 8.5701,-0.53068 9.9762,-0.24769 16.8453,3.39019 9.013,4.77333 9.7961,4.84544 9.7961,0.90212 0,-7.94746 15.8431,-49.09077 24.5415,-63.73236 16.466,-27.7163 39.8804,-39.15932 59.37608,-29.01804 14.0475,7.30725 25.2999,24.73622 29.6121,45.86639 2.0839,10.21134 2.6492,37.09652 1.4025,66.703 -0.2637,6.26357 0.1736,7.73491 3.5415,11.91592 10.707,13.29177 12.3183,17.86388 9.7397,27.63757 -3.0448,11.54045 -17.8366,29.72943 -32.9944,40.57194 -16.5293,11.82351 -40.29808,20.35928 -65.12028,23.38573 -10.5838,1.29044 -45.8173,1.593 -59.557,0.51143 z M 434.00899,247.76911 c 5.3801,-1.49464 13.1859,-9.1111 15.7605,-15.37826 9.2229,-22.4497 -3.8787,-55.80813 -24.14758,-61.48306 -11.191,-3.13328 -24.9088,0.77326 -31.9029,9.08523 -4.9924,5.93317 -7.9533,12.32754 -10.9852,23.7242 -3.9402,14.81091 -4.6752,25.91243 -2.0514,30.9863 2.6237,5.07354 10.1329,10.16972 18.2879,12.41115 7.3702,2.02571 28.6707,2.42355 35.03868,0.65444 z M 294.35731,233.23244 c 10.0287,-4.80726 15.1164,-19.36775 13.7472,-39.34327 -1.564,-22.81756 -14.26,-37.58561 -32.3187,-37.59326 -10.0965,-0.004 -16.5234,2.32936 -23.0934,8.38536 -9.6527,8.89762 -16.8602,31.53391 -15.7237,49.383 0.4255,6.68145 1.1207,8.67142 4.1252,11.80743 10.1297,10.57307 38.4092,14.48116 53.2634,7.36074 z"
               id="path2068" />
            <path
               style="fill:#fefefe;fill-opacity:1;stroke-width:1.2808"
               d="m 298.19971,616.00998 c -12.7375,-2.85901 -30.0946,-12.04404 -40.1206,-21.231 -28.1978,-25.83814 -41.34283,-65.03914 -36.8233,-109.8138 5.61179,-55.59548 23.6269,-90.03804 55.4861,-106.08206 13.1262,-6.61025 23.1677,-8.5165 41.3102,-7.8422 17.6796,0.65709 25.1115,2.92029 37.2895,11.35558 15.3048,10.60111 24.7821,22.81679 24.8166,31.98724 0.041,10.88582 -21.7796,53.70496 -39.8284,78.1564 -12.3669,16.75386 -13.3966,26.22094 -3.4135,31.38341 3.0805,1.59296 6.6996,1.99275 15.0114,1.65821 6.0237,-0.24247 17.3995,-0.46062 25.2793,-0.4848 14.1132,-0.0433 14.3853,0.0115 18.2286,3.69607 9.6171,9.21889 10.3829,25.67622 1.9889,42.7451 -7.0069,14.24846 -20.8428,27.88167 -35.3201,34.80274 -20.5501,9.82423 -46.0346,13.68017 -63.9047,9.66911 z"
               id="path2070" />
            <path
               style="fill:#fefefe;fill-opacity:1;stroke-width:0.640399"
               d="m 292.10361,227.74796 c 2.3506,-5.92167 4.8241,-17.83492 4.8042,-23.13824 -0.064,-16.97556 -12.2218,-29.03832 -26.5904,-26.38214 -11.3935,2.10621 -19.2487,10.05609 -21.6946,21.95624 -1.048,5.09868 -1.251,14.72012 -0.4465,21.16015 0.253,2.02526 0.2852,3.68229 0.072,3.68229 -0.9123,0 -4.5068,-4.36841 -5.5328,-6.72418 -3.2622,-7.48999 0.7872,-32.1892 6.9284,-42.25864 6.897,-11.30885 14.3039,-15.45394 26.7104,-14.9478 5.2639,0.21475 6.7817,0.54458 10.4728,2.27593 8.1447,3.82026 13.9525,11.82641 16.1687,22.28855 1.8971,8.95581 0.7806,25.078 -2.3085,33.33427 -0.8472,2.26432 -2.4926,4.80902 -4.3671,6.75377 -3.0518,3.16617 -5.0567,4.11711 -4.2162,1.9998 z"
               id="path3659" />
            <path
               style="fill:#fefefe;fill-opacity:1;stroke-width:0.640399"
               d="m 434.69059,237.57698 c 4.5249,-13.12785 3.4003,-24.79662 -3.36668,-34.93026 -4.6542,-6.96972 -9.5847,-9.92943 -16.5716,-9.94778 -4.1353,-0.0109 -5.2775,0.25023 -8.216,1.87787 -4.2429,2.35015 -9.7044,8.16708 -11.8751,12.64791 -3.4823,7.18819 -4.4447,15.6576 -2.9063,25.57345 0.3836,2.47229 0.542,4.65054 0.352,4.84056 -0.6853,0.68527 -4.1839,-2.75149 -5.851,-5.74764 -2.1892,-3.93432 -2.2737,-9.71404 -0.3118,-21.33155 3.3058,-19.57564 10.1929,-30.07308 22.4573,-34.22993 5.3725,-1.82093 14.9542,-1.53321 20.5688,0.61765 11.55788,4.42763 17.81548,18.73729 17.79718,40.69762 -0.011,13.33587 -2.946,20.59792 -9.7358,24.09039 -4.20298,2.16196 -4.39928,1.81326 -2.341,-4.15829 z"
               id="path3663" />
            <path
               style="fill:#fefefe;fill-opacity:1"
               d="m 502.86229,578.35962 1.2114,12.92492"
               id="path3736" />
            <path
               style="fill:#fefefe;fill-opacity:1"
               d="m 507.22749,594.31455 8.6817,-6.05815"
               id="path3738" />
            <path
               style="fill:#fefefe;fill-opacity:1"
               d="m 521.36259,595.17133 -11.142,-12.70916"
               id="path3740" />
            <path
               style="fill:#fefefe;fill-opacity:1"
               d="m 506.72219,579.67419 -2.3327,-0.75235"
               id="path3742" />
            <path
               style="fill:#fefefe;fill-opacity:1"
               d="m 516.70659,574.65231 -5.3859,15.15506"
               id="path3744" />
          </g>
          <ellipse
             style="fill:#28282b;fill-opacity:1"
             id="path3986"
             cx="389.01212"
             cy="63.886013"
             rx="45.811012"
             ry="25.547152" />
        </g>
        <path
           style="fill:#ff8f1b;fill-opacity:1"
           d="m -128.71484,563.13273 c 4.21158,24.8258 4.33622,51.71119 -7.41748,74.62117 -12.2071,17.61175 -36.81611,22.99339 -56.49969,16.40464 -11.79029,-3.63179 -22.05007,-12.84072 -25.58708,-24.83365 -7.04309,-15.64279 -16.32102,-31.72509 -14.57756,-49.5248 0.77519,-8.46006 2.56104,-17.3345 7.84984,-24.20081 6.04683,-6.22039 12.68495,1.0072 18.33178,3.20054 8.16434,-0.62183 6.24488,-10.66623 9.96351,-15.59835 4.32814,-7.04231 14.63248,-7.63718 20.64176,-2.5022 4.05087,2.35261 4.93198,8.27811 9.97358,9.08287 5.64534,1.08505 10.22233,-3.67804 11.94707,-8.49183 4.71887,-5.15626 13.76979,-2.21336 16.12307,3.8943 3.44346,5.79127 4.11688,13.19266 9.2512,17.94812 z"
           id="path4056" />
        <path
           style="fill:#ff8f1b;fill-opacity:1"
           d="m -390.81178,564.87823 c 4.21158,24.8258 4.33622,51.71119 -7.41748,74.62117 -12.2071,17.61175 -36.81611,22.99339 -56.49969,16.40464 -11.79029,-3.63179 -22.05007,-12.84072 -25.58708,-24.83365 -7.04309,-15.64279 -16.32102,-31.72509 -14.57756,-49.5248 0.77519,-8.46006 2.56104,-17.3345 7.84984,-24.20081 6.04683,-6.22039 12.68495,1.0072 18.33178,3.20054 8.16434,-0.62183 6.24488,-10.66623 9.96351,-15.59835 4.32814,-7.04231 14.63248,-7.63718 20.64176,-2.5022 4.05087,2.35261 4.93198,8.27811 9.97358,9.08287 5.64534,1.08505 10.22233,-3.67804 11.94707,-8.49183 4.71887,-5.15626 13.76979,-2.21336 16.12307,3.8943 3.44346,5.79127 4.11688,13.19266 9.2512,17.94812 z"
           id="path4056-3" />
      </g>
      <path
         style="fill:#ff8f1c;fill-opacity:1;stroke-width:0.90566"
         d="m -481.66138,287.824 c -23.69825,-2.84004 -47.73467,-10.49147 -65.69142,-26.78122 -6.06077,-8.2635 4.7653,-15.35518 12.39925,-18.00887 19.39514,-9.11146 34.93725,-24.25189 55.37837,-31.17653 13.84338,-0.0216 22.6286,12.62728 32.51598,20.43104 12.22006,10.76553 23.38148,23.59786 33.34378,36.46099 2.8397,8.90937 -6.14626,16.03529 -14.0179,16.89273 -17.35214,3.96016 -36.18688,3.14595 -53.92806,2.18186 z"
         id="path7188"
         inkscape:path-effect="#path-effect7206"
         inkscape:original-d="m -481.24802,289.23419 c -23.69825,-2.84004 -47.72375,-10.6077 -65.6805,-26.89745 -6.06077,-8.2635 3.03725,-17.18242 10.6712,-19.83611 19.39514,-9.11146 36.55344,-22.70283 56.99456,-29.62747 13.84338,-0.0216 22.59798,12.31181 32.48536,20.11557 12.22006,10.76553 23.12268,22.95342 33.08498,35.81655 2.8397,8.90937 -6.5189,15.56622 -14.39054,16.42366 -17.35214,3.96016 -35.42388,4.96934 -53.16506,4.00525 z" />
    </g>
    <path
       style="fill:#161616;stroke-width:0.90566"
       d="m 556.39245,568.30188 c -0.29887,-1.49434 -0.9,-2.71698 -1.33585,-2.71698 -0.43585,0 -0.71533,-0.30566 -0.62107,-0.67925 0.0943,-0.37358 -1.08879,-3.39925 -2.62901,-6.7237 -3.156,-6.81202 -5.96734,-8.89894 -11.98797,-8.89894 -2.49661,0 -4.12899,0.55068 -5.11268,1.72475 -9.30075,11.10091 -11.04244,11.49303 -18.20438,4.09858 -7.09742,-7.32786 -12.88368,-9.22247 -19.54945,-6.40116 -4.22476,1.78816 -6.18344,4.40909 -8.39441,11.2327 -1.24997,3.85775 -2.78071,6.66257 -4.22434,7.7404 -2.24492,1.67607 -2.30584,1.66672 -7.22094,-1.10719 -5.68947,-3.21094 -10.9139,-3.67259 -13.72291,-1.21261 -1.74037,1.52411 -1.78114,1.51543 -1.06299,-0.22641 1.25427,-3.04218 1.63843,-19.64594 0.54821,-23.69468 -1.77557,-6.59396 -6.26912,-12.18233 -12.24495,-15.22835 -4.98455,-2.54073 -6.0254,-2.72994 -14.49057,-2.6342 -5.22796,0.0591 -13.63165,0.96499 -19.6911,2.12255 -10.06212,1.92223 -10.81239,1.94918 -15.59078,0.56006 -2.76098,-0.80264 -6.15506,-2.43571 -7.54238,-3.62905 -2.12217,-1.8254 -2.5185,-2.86476 -2.49765,-6.54999 0.0313,-5.53169 1.53999,-8.54839 9.86726,-19.73001 12.77179,-17.1496 32.85038,-53.08203 37.58584,-67.26323 5.42266,-16.23912 -0.0789,-29.17445 -18.22319,-42.84658 -8.45277,-6.36936 -18.90815,-11.87007 -26.60544,-13.99747 -3.04017,-0.84025 -10.66593,-1.70243 -17.59265,-1.98906 -14.0512,-0.58142 -23.57926,0.8053 -35.54959,5.17393 -40.30949,14.71114 -64.42283,62.98019 -64.4568,129.02683 -0.0102,19.82839 1.06391,29.06788 4.75964,40.94228 l 1.72172,5.53191 -3.81233,-0.0576 c -4.67606,-0.0707 -5.39417,0.35278 -8.23826,4.8581 -2.62459,4.15764 -7.29186,6.7438 -10.64964,5.90106 -1.26675,-0.31794 -3.44129,-2.16138 -4.83231,-4.09655 -3.17619,-4.41865 -7.28474,-7.2678 -11.45671,-7.94481 -8.28168,-1.34393 -14.09155,2.62422 -16.55276,11.30556 -2.61726,9.23177 -6.07024,12.17471 -7.20261,6.1387 -0.76564,-4.08125 0.98988,-7.58221 7.76443,-15.48427 6.78229,-7.91108 9.57019,-13.46437 11.30108,-22.51091 3.33177,-17.4136 0.0131,-37.42641 -9.52754,-57.45466 -9.03304,-18.9627 -17.60294,-31.3464 -47.33882,-68.40573 -28.64051,-35.69421 -35.83146,-46.93177 -36.69498,-57.34463 -0.52222,-6.2973 0.16998,-8.68014 3.68423,-12.6827 7.97913,-9.08784 19.66755,-9.58459 59.63466,-2.53441 33.3212,5.87785 50.07287,7.31759 52.40773,4.50428 1.22442,-1.47535 0.96309,-2.01254 -8.57119,-17.61788 -15.06663,-24.66051 -26.67328,-51.68367 -33.09258,-77.04773 -4.94668,-19.5454 -5.79873,-26.76411 -5.82599,-49.35849 -0.022,-18.25428 0.23468,-22.11815 2.07574,-31.24529 6.29389,-31.20216 17.87524,-54.0285 37.24228,-73.402899 39.20319,-39.218072 106.97869,-56.338813 184.34268,-46.566727 37.39774,4.723824 57.13864,12.675669 81.20847,32.711619 66.63815,55.470237 80.42068,168.171297 29.80249,243.697777 -6.67084,9.95345 -27.4874,36.11004 -38.89852,48.87706 -6.24866,6.99117 -9.16905,12.35075 -9.16905,16.82734 0,4.154 0.7962,5.76092 9.38495,18.94111 12.94261,19.86159 20.07436,35.66829 24.63888,54.60923 2.52207,10.46556 2.90939,18.21803 1.81008,36.23002 -0.94908,15.5506 -0.47145,17.52933 9.18162,38.03773 8.94172,18.99711 11.90346,27.18369 12.61872,34.87967 0.59146,6.36389 -0.15409,8.67209 -1.16632,3.6109 z M 451.01886,358.70426 c 33.49314,-5.31078 58.13843,-17.30576 77.19379,-37.57057 20.63898,-21.94893 24.22279,-39.01339 11.20408,-53.34846 -8.87703,-9.7746 -9.79238,-11.41037 -9.09229,-16.24836 0.34156,-2.36038 0.92346,-4.69914 1.29311,-5.19725 3.40515,-4.58852 3.42031,-37.26387 0.0264,-56.99684 -2.16674,-12.59803 -5.80872,-23.783 -10.10566,-31.03565 -4.4262,-7.47084 -13.82267,-16.73325 -20.25533,-19.96636 -26.8014,-13.47062 -54.10683,3.61142 -72.56247,45.39446 -4.48777,10.16018 -15.73941,40.95305 -15.73941,43.07475 0,1.55491 -0.5338,1.41568 -5.08897,-1.3273 -7.2594,-4.37138 -11.83784,-4.85757 -18.78641,-1.99491 -3.05722,1.25951 -5.64546,2.21068 -5.75164,2.11372 -0.10618,-0.097 0.39077,-2.38949 1.10434,-5.09452 3.45354,-13.09174 3.802,-30.61079 0.88227,-44.35603 -5.37755,-25.3159 -20.4525,-44.39706 -43.98576,-55.67508 -8.28038,-3.96826 -14.86178,-5.31846 -23.4382,-4.80842 -9.40052,0.55904 -15.66395,3.74816 -24.53049,12.49008 -14.95725,14.74701 -22.85507,34.63479 -28.41017,71.54059 -3.09128,20.53723 -4.56101,24.58114 -13.00157,35.77359 -10.68292,14.16585 -13.06127,21.61547 -11.12615,34.84988 5.06638,34.64913 30.09494,62.12652 68.88747,75.62748 20.46668,7.12301 36.71863,10.03292 78.33962,14.02667 13.11151,1.25813 51.93628,0.47385 62.94339,-1.27147 z"
       id="path6173" />
    <path
       style="fill:#161616;stroke-width:0.90566"
       d="m 311.09434,657.88223 c -8.12613,-0.63891 -21.97524,-3.02729 -22.89664,-3.94869 -0.19646,-0.19646 0.48931,-1.50999 1.52393,-2.91896 2.84552,-3.8751 7.17266,-16.58945 8.82568,-25.93234 1.55146,-8.76886 2.04608,-29.42353 0.89344,-37.30866 l -0.66194,-4.5283 2.45666,3.16981 c 9.47864,12.2302 26.96247,25.63354 39.99162,30.65811 24.44826,9.42825 54.91215,7.24002 80.92412,-5.8128 13.30114,-6.67452 22.82823,-15.51611 33.20765,-30.81825 1.08267,-1.59617 1.1334,-1.55587 0.67827,0.53898 -1.58031,7.27383 -1.58013,18.09224 4.2e-4,24.97973 0.90511,3.94417 1.54456,7.89864 1.42101,8.78773 -0.50234,3.61481 5.97621,19.00795 9.61617,22.84815 0.95044,1.00274 2.76036,4.07794 4.02203,6.83378 1.26166,2.75584 3.61947,6.52032 5.23958,8.36552 l 2.94563,3.3549 h -3.66015 c -2.01307,0 -12.95718,-1.30865 -24.32023,-2.90811 -17.85049,-2.51263 -23.12333,-2.90224 -38.77329,-2.86497 -15.72199,0.0374 -21.23754,0.47717 -41.77957,3.33081 -31.35699,4.35602 -45.10245,5.31768 -59.65439,4.17356 z"
       id="path6177" />
  </g>
</svg>
